<?xml version="1.0" standalone="no"?>
<!DOCTYPE svg PUBLIC "-//W3C//DTD SVG 20010904//EN"
 "http://www.w3.org/TR/2001/REC-SVG-20010904/DTD/svg10.dtd">
<svg version="1.0" xmlns="http://www.w3.org/2000/svg"
 width="200.000000pt" height="150.000000pt" viewBox="0 0 200.000000 150.000000"
 preserveAspectRatio="xMidYMid meet">
<metadata>
Created by potrace 1.16, written by Peter Selinger 2001-2019
</metadata>
<g transform="translate(0.000000,150.000000) scale(0.100000,-0.100000)"
fill="#000000" stroke="none">
<path d="M830 907 l0 -106 -90 -52 c-49 -28 -90 -54 -90 -58 0 -4 14 -12 32
-19 30 -11 37 -9 90 23 l58 34 0 -174 c0 -96 3 -175 6 -175 3 0 19 8 36 17
l29 18 -3 142 -3 142 31 -19 c26 -17 35 -18 62 -8 18 7 32 17 31 23 0 5 -27
24 -61 41 l-61 31 2 104 2 105 -28 14 c-15 8 -31 16 -35 18 -5 2 -8 -44 -8
-101z"/>
<path d="M150 708 l0 -214 91 -52 91 -52 94 53 93 52 1 107 0 106 -89 51 c-48
28 -93 51 -100 51 -6 0 -33 -13 -59 -30 -27 -16 -52 -30 -56 -30 -3 0 -6 31
-6 68 0 65 -1 68 -30 85 l-30 18 0 -213z m244 0 l56 -32 0 -72 0 -72 -59 -35
-59 -35 -61 36 -61 36 0 71 0 70 58 32 c31 18 60 32 64 33 3 0 31 -14 62 -32z"/>
<path d="M1128 756 c-84 -49 -88 -53 -88 -86 0 -35 2 -36 124 -106 l125 -70
-34 -18 -33 -18 -62 36 c-59 35 -62 35 -91 21 -35 -19 -36 -27 -6 -41 12 -6
54 -28 93 -49 l70 -39 82 47 c44 26 86 47 92 47 29 0 -4 24 -140 101 -82 46
-150 86 -150 89 0 3 25 18 56 34 l57 30 63 -34 c57 -30 65 -32 93 -20 17 7 31
15 31 19 0 6 -183 112 -191 110 -2 -1 -43 -24 -91 -53z"/>
<path d="M1623 757 c-89 -50 -93 -53 -93 -87 0 -34 2 -36 125 -106 l125 -71
-33 -18 -34 -18 -62 37 c-60 35 -63 35 -92 21 -37 -19 -36 -26 4 -46 18 -8 59
-31 93 -49 l61 -34 81 47 c45 26 86 47 92 47 29 0 -4 24 -141 102 l-150 86 51
31 c27 17 55 31 61 31 6 0 37 -14 69 -32 53 -29 60 -30 89 -18 17 7 31 15 31
19 0 3 -17 15 -38 27 -20 11 -62 34 -92 52 l-55 31 -92 -52z"/>
</g>
</svg>
